<svg width="657.9px" height="120.8px" xmlns="http://www.w3.org/2000/svg" viewBox="-78.9375 14.600000000000001 657.875 120.8" style="background: rgba(0, 0, 0, 0)" preserveAspectRatio="xMidYMid"><defs><linearGradient id="editing-gradient-gradient" x1="0" x2="1" y1="0.5" y2="0.5" gradientUnits="objectBoundingBox"><stop offset="0" stop-color="#cd047b"></stop><stop offset="1" stop-color="#2a1575"></stop></linearGradient></defs><g><g transform="matrix(1.3,0,0,1.5,-45.4,178.8)"><path d="M 8.9 -53 L -5.1 -53 L 3.1 -95.2 L 17.2 -95.2 L 8.9 -53 Z M 64.6 -51.7 L 64.6 -51.7 L 64.6 -51.7 Q 56.9 -51.7 56.9 -57.7 L 56.9 -57.7 L 56.9 -57.7 Q 56.9 -60.3 58 -65.4 L 58 -65.4 L 58 -65.4 Q 59.1 -70.5 59.5 -72.5 L 59.5 -72.5 L 59.5 -72.5 Q 60.4 -77.2 60.4 -78.7 L 60.4 -78.7 L 60.4 -78.7 Q 60.4 -81.9 58 -81.9 L 58 -81.9 L 58 -81.9 Q 56.4 -81.9 54.9 -79.7 L 54.9 -79.7 L 54.9 -79.7 Q 53.3 -77.5 52.6 -73.1 L 52.6 -73.1 L 48.6 -53 L 36.2 -51.7 L 39.6 -69.1 L 39.6 -69.1 Q 40.2 -72 40.7 -75.2 L 40.7 -75.2 L 40.7 -75.2 Q 41.2 -78.5 41.2 -79 L 41.2 -79 L 41.2 -79 Q 41.2 -81.9 39 -81.9 L 39 -81.9 L 39 -81.9 Q 37.6 -81.9 36 -79.8 L 36 -79.8 L 36 -79.8 Q 34.4 -77.6 33.5 -73.1 L 33.5 -73.1 L 29.6 -53 L 17 -51.7 L 23.7 -85.6 L 34.1 -86.9 L 33 -80.4 L 33 -80.4 Q 34.7 -83.9 37.8 -85.4 L 37.8 -85.4 L 37.8 -85.4 Q 40.8 -86.9 45.6 -86.9 L 45.6 -86.9 L 45.6 -86.9 Q 48.4 -86.9 50.2 -85.5 L 50.2 -85.5 L 50.2 -85.5 Q 52 -84.2 52.5 -82 L 52.5 -82 L 52.5 -82 Q 53.6 -84.3 56.4 -85.6 L 56.4 -85.6 L 56.4 -85.6 Q 59.2 -86.9 62.6 -86.9 L 62.6 -86.9 L 62.6 -86.9 Q 66.1 -86.9 67.7 -86.1 L 67.7 -86.1 L 67.7 -86.1 Q 69.4 -85.4 70.5 -84.2 L 70.5 -84.2 L 70.5 -84.2 Q 72.2 -81.9 72.2 -77.9 L 72.2 -77.9 L 72.2 -77.9 Q 72.2 -73.8 70.5 -65.4 L 70.5 -65.4 L 70.5 -65.4 Q 69.6 -61.3 69.6 -59.8 L 69.6 -59.8 L 69.6 -59.8 Q 69.6 -58.3 70.4 -57.4 L 70.4 -57.4 L 70.4 -57.4 Q 71.3 -56.5 72.6 -56.4 L 72.6 -56.4 L 72.6 -56.4 Q 71.9 -54.2 69.7 -53 L 69.7 -53 L 69.7 -53 Q 67.5 -51.7 64.6 -51.7 Z M 80.3 -54.9 L 80.3 -54.9 L 80.3 -54.9 Q 78.8 -56.5 78.1 -59.2 L 78.1 -59.2 L 78.1 -59.2 Q 77.4 -61.8 77.4 -66.1 L 77.4 -66.1 L 77.4 -66.1 Q 77.4 -70.4 78.9 -74.3 L 78.9 -74.3 L 78.9 -74.3 Q 80.4 -78.2 83.1 -81 L 83.1 -81 L 83.1 -81 Q 88.6 -86.9 97.7 -86.9 L 97.7 -86.9 L 97.7 -86.9 Q 100.9 -86.9 103.3 -85.8 L 103.3 -85.8 L 114.2 -86.9 L 109.5 -61.9 L 109.5 -61.9 Q 109.3 -61.1 109.3 -59.7 L 109.3 -59.7 L 109.3 -59.7 Q 109.3 -58.3 110.2 -57.4 L 110.2 -57.4 L 110.2 -57.4 Q 111 -56.5 112.3 -56.4 L 112.3 -56.4 L 112.3 -56.4 Q 111.7 -54.2 109.3 -53 L 109.3 -53 L 109.3 -53 Q 107 -51.7 104.4 -51.7 L 104.4 -51.7 L 104.4 -51.7 Q 101.8 -51.7 100 -52.7 L 100 -52.7 L 100 -52.7 Q 98.2 -53.7 97.7 -55.3 L 97.7 -55.3 L 97.7 -55.3 Q 96.7 -53.7 94.5 -52.7 L 94.5 -52.7 L 94.5 -52.7 Q 92.4 -51.7 89.4 -51.7 L 89.4 -51.7 L 89.4 -51.7 Q 86.5 -51.7 84.2 -52.4 L 84.2 -52.4 L 84.2 -52.4 Q 81.8 -53.2 80.3 -54.9 Z M 93.8 -80.9 L 93.8 -80.9 L 93.8 -80.9 Q 93.1 -79.7 92.4 -77.8 L 92.4 -77.8 L 92.4 -77.8 Q 91.8 -75.8 90.7 -70.6 L 90.7 -70.6 L 90.7 -70.6 Q 89.7 -65.4 89.7 -61.7 L 89.7 -61.7 L 89.7 -61.7 Q 89.7 -57.9 90.2 -56.9 L 90.2 -56.9 L 90.2 -56.9 Q 90.8 -55.8 91.8 -55.8 L 91.8 -55.8 L 91.8 -55.8 Q 93.9 -55.8 95.4 -57.7 L 95.4 -57.7 L 95.4 -57.7 Q 96.9 -59.7 97.5 -63.1 L 97.5 -63.1 L 100.9 -81.9 L 100.9 -81.9 Q 99.5 -83 98 -83 L 98 -83 L 98 -83 Q 96.4 -83 95.5 -82.5 L 95.5 -82.5 L 95.5 -82.5 Q 94.5 -82 93.8 -80.9 Z M 122 -79.7 L 122 -79.7 L 122 -79.7 Q 124.2 -82.8 127.5 -84.8 L 127.5 -84.8 L 127.5 -84.8 Q 130.8 -86.9 134.8 -86.9 L 134.8 -86.9 L 134.8 -86.9 Q 138.8 -86.9 140.7 -85.6 L 140.7 -85.6 L 153.3 -86.9 L 148.9 -62.3 L 148.9 -62.3 Q 146.7 -49.8 142 -44.8 L 142 -44.8 L 142 -44.8 Q 137.4 -40.2 128.6 -40.2 L 128.6 -40.2 L 128.6 -40.2 Q 121.9 -40.2 118 -42.3 L 118 -42.3 L 118 -42.3 Q 114.2 -44.4 114.2 -47.9 L 114.2 -47.9 L 114.2 -47.9 Q 114.2 -50.5 116.2 -52 L 116.2 -52 L 116.2 -52 Q 118.1 -53.5 121.2 -53.5 L 121.2 -53.5 L 121.2 -53.5 Q 123.9 -53.5 126 -52.3 L 126 -52.3 L 126 -52.3 Q 127.2 -51.7 127.7 -50.8 L 127.7 -50.8 L 127.7 -50.8 Q 126.3 -49.5 126.3 -47.4 L 126.3 -47.4 L 126.3 -47.4 Q 126.3 -44.6 128.8 -44.6 L 128.8 -44.6 L 128.8 -44.6 Q 133.1 -44.6 135.6 -54.7 L 135.6 -54.7 L 135.6 -54.7 Q 136.3 -57.5 136.8 -60.3 L 136.8 -60.3 L 136.8 -60.3 Q 134 -56.7 127.4 -56.7 L 127.4 -56.7 L 127.4 -56.7 Q 122.9 -56.7 120.3 -58.9 L 120.3 -58.9 L 120.3 -58.9 Q 117.6 -61.1 117.6 -66.2 L 117.6 -66.2 L 117.6 -66.2 Q 117.6 -69.4 118.7 -73 L 118.7 -73 L 118.7 -73 Q 119.8 -76.6 122 -79.7 Z M 130.3 -66 L 130.3 -66 L 130.3 -66 Q 130.3 -61.7 132.5 -61.7 L 132.5 -61.7 L 132.5 -61.7 Q 134.1 -61.7 135.6 -63.3 L 135.6 -63.3 L 135.6 -63.3 Q 136.7 -64.7 137.2 -66.7 L 137.2 -66.7 L 140.4 -83.1 L 140.4 -83.1 Q 140.1 -83.2 139.8 -83.3 L 139.8 -83.3 L 139.8 -83.3 Q 139.1 -83.5 138.3 -83.5 L 138.3 -83.5 L 138.3 -83.5 Q 134.4 -83.5 132.1 -77.1 L 132.1 -77.1 L 132.1 -77.1 Q 130.3 -72.2 130.3 -66 Z M 181.7 -63.8 L 181.7 -63.8 L 181.7 -63.8 Q 183.3 -62.7 183.3 -60.3 L 183.3 -60.3 L 183.3 -60.3 Q 183.3 -57.9 182.1 -56.3 L 182.1 -56.3 L 182.1 -56.3 Q 180.9 -54.8 178.9 -53.8 L 178.9 -53.8 L 178.9 -53.8 Q 174.8 -51.7 170.4 -51.7 L 170.4 -51.7 L 170.4 -51.7 Q 166 -51.7 163.4 -52.6 L 163.4 -52.6 L 163.4 -52.6 Q 160.8 -53.6 159 -55.4 L 159 -55.4 L 159 -55.4 Q 155.7 -58.8 155.7 -65 L 155.7 -65 L 155.7 -65 Q 155.7 -74.7 160.9 -80.5 L 160.9 -80.5 L 160.9 -80.5 Q 166.5 -86.9 176.3 -86.9 L 176.3 -86.9 L 176.3 -86.9 Q 182.4 -86.9 185.4 -84.3 L 185.4 -84.3 L 185.4 -84.3 Q 187.7 -82.4 187.7 -79.3 L 187.7 -79.3 L 187.7 -79.3 Q 187.7 -68 168.2 -68 L 168.2 -68 L 168.2 -68 Q 167.9 -66.3 167.9 -64.9 L 167.9 -64.9 L 167.9 -64.9 Q 167.9 -62 169.3 -60.9 L 169.3 -60.9 L 169.3 -60.9 Q 170.6 -59.7 173 -59.7 L 173 -59.7 L 173 -59.7 Q 175.4 -59.7 178 -60.9 L 178 -60.9 L 178 -60.9 Q 180.6 -62 181.7 -63.8 Z M 168.6 -70.7 L 168.6 -70.7 L 168.6 -70.7 Q 173.2 -70.7 175.8 -73.6 L 175.8 -73.6 L 175.8 -73.6 Q 178.4 -76.3 178.4 -80.5 L 178.4 -80.5 L 178.4 -80.5 Q 178.4 -82 177.9 -82.8 L 177.9 -82.8 L 177.9 -82.8 Q 177.3 -83.6 176.3 -83.6 L 176.3 -83.6 L 176.3 -83.6 Q 175.2 -83.6 174.2 -83.2 L 174.2 -83.2 L 174.2 -83.2 Q 173.3 -82.8 172.4 -81.4 L 172.4 -81.4 L 172.4 -81.4 Q 170 -78.2 168.6 -70.7 Z M 209 -75.4 L 209 -75.4 L 209 -75.4 Q 209.9 -77.8 209.9 -79.8 L 209.9 -79.8 L 209.9 -79.8 Q 209.9 -83.6 206.8 -83.6 L 206.8 -83.6 L 206.8 -83.6 Q 205.2 -83.6 203.9 -82.2 L 203.9 -82.2 L 203.9 -82.2 Q 202.6 -80.7 202.6 -78.9 L 202.6 -78.9 L 202.6 -78.9 Q 202.6 -77.7 203.6 -76.6 L 203.6 -76.6 L 203.6 -76.6 Q 205.1 -75.2 208.8 -72.9 L 208.8 -72.9 L 208.8 -72.9 Q 212.6 -70.6 214.1 -68.7 L 214.1 -68.7 L 214.1 -68.7 Q 215.5 -66.8 215.5 -64.3 L 215.5 -64.3 L 215.5 -64.3 Q 215.5 -61.7 214.2 -59.3 L 214.2 -59.3 L 214.2 -59.3 Q 213 -56.9 210.8 -55.3 L 210.8 -55.3 L 210.8 -55.3 Q 206 -51.7 198.3 -51.7 L 198.3 -51.7 L 198.3 -51.7 Q 194.1 -51.7 190.9 -53.9 L 190.9 -53.9 L 190.9 -53.9 Q 187.7 -56 187.7 -58.5 L 187.7 -58.5 L 187.7 -58.5 Q 187.7 -61 189.5 -62.4 L 189.5 -62.4 L 189.5 -62.4 Q 191.4 -63.9 194.1 -63.9 L 194.1 -63.9 L 194.1 -63.9 Q 196.7 -63.9 198.4 -62.9 L 198.4 -62.9 L 198.4 -62.9 Q 197.6 -60.8 197.6 -59.4 L 197.6 -59.4 L 197.6 -59.4 Q 197.6 -55.1 201.2 -55.1 L 201.2 -55.1 L 201.2 -55.1 Q 202.7 -55.1 203.7 -56.1 L 203.7 -56.1 L 203.7 -56.1 Q 204.7 -57.1 204.7 -58.7 L 204.7 -58.7 L 204.7 -58.7 Q 204.7 -62 199.2 -65.4 L 199.2 -65.4 L 199.2 -65.4 Q 194.8 -68.4 193.7 -69.5 L 193.7 -69.5 L 193.7 -69.5 Q 192 -71.6 192 -74.1 L 192 -74.1 L 192 -74.1 Q 192 -76.7 193.2 -79.1 L 193.2 -79.1 L 193.2 -79.1 Q 194.4 -81.6 196.7 -83.3 L 196.7 -83.3 L 196.7 -83.3 Q 201.3 -86.9 209.5 -86.9 L 209.5 -86.9 L 209.5 -86.9 Q 213.6 -86.9 216.1 -85.2 L 216.1 -85.2 L 216.1 -85.2 Q 218.6 -83.5 218.6 -80.7 L 218.6 -80.7 L 218.6 -80.7 Q 218.6 -77.9 216.9 -76.3 L 216.9 -76.3 L 216.9 -76.3 Q 215.2 -74.7 212.1 -74.7 L 212.1 -74.7 L 212.1 -74.7 Q 210 -74.7 209 -75.4 Z M 260 -73.6 L 273 -74.7 L 273 -74.7 Q 268.4 -64.6 268.4 -52.9 L 268.4 -52.9 L 268.4 -52.9 Q 266.6 -51.7 264.1 -51.7 L 264.1 -51.7 L 264.1 -51.7 Q 261.6 -51.7 260 -52.9 L 260 -52.9 L 260 -52.9 Q 258.4 -54 258.1 -55.3 L 258.1 -55.3 L 258.1 -55.3 Q 256.5 -53.6 253.9 -52.6 L 253.9 -52.6 L 253.9 -52.6 Q 251.3 -51.7 248.5 -51.7 L 248.5 -51.7 L 248.5 -51.7 Q 245.8 -51.7 243.4 -52.6 L 243.4 -52.6 L 243.4 -52.6 Q 241 -53.5 239.1 -55.5 L 239.1 -55.5 L 239.1 -55.5 Q 235 -59.8 235 -68.1 L 235 -68.1 L 235 -68.1 Q 235 -80.9 241.9 -88.5 L 241.9 -88.5 L 241.9 -88.5 Q 248.9 -96.5 261.4 -96.5 L 261.4 -96.5 L 261.4 -96.5 Q 270 -96.5 273.1 -92 L 273.1 -92 L 273.1 -92 Q 274.1 -90.6 274.1 -88.9 L 274.1 -88.9 L 274.1 -88.9 Q 274.1 -87.2 273.3 -85.8 L 273.3 -85.8 L 273.3 -85.8 Q 272.6 -84.3 271.4 -83.2 L 271.4 -83.2 L 271.4 -83.2 Q 268.7 -80.6 265.3 -80.6 L 265.3 -80.6 L 265.3 -80.6 Q 263.9 -80.6 262.7 -81.1 L 262.7 -81.1 L 262.7 -81.1 Q 262.9 -83 262.9 -85.2 L 262.9 -85.2 L 262.9 -85.2 Q 262.9 -87.5 262.8 -88.5 L 262.8 -88.5 L 262.8 -88.5 Q 262.6 -89.5 262.2 -90.3 L 262.2 -90.3 L 262.2 -90.3 Q 261.4 -92.1 259.6 -92.1 L 259.6 -92.1 L 259.6 -92.1 Q 257.7 -92.1 255.7 -90.1 L 255.7 -90.1 L 255.7 -90.1 Q 253.7 -88.2 252.1 -85 L 252.1 -85 L 252.1 -85 Q 248.6 -77.8 248.6 -69.1 L 248.6 -69.1 L 248.6 -69.1 Q 248.6 -65.2 250.1 -62.4 L 250.1 -62.4 L 250.1 -62.4 Q 251.8 -59.3 254.7 -59.3 L 254.7 -59.3 L 254.7 -59.3 Q 255.7 -59.3 256.7 -59.8 L 256.7 -59.8 L 256.7 -59.8 Q 257.6 -60.3 258 -60.7 L 258 -60.7 L 260 -73.6 Z M 278.9 -54.9 L 278.9 -54.9 L 278.9 -54.9 Q 277.4 -56.5 276.7 -59.2 L 276.7 -59.2 L 276.7 -59.2 Q 276 -61.8 276 -66.1 L 276 -66.1 L 276 -66.1 Q 276 -70.4 277.5 -74.3 L 277.5 -74.3 L 277.5 -74.3 Q 279 -78.2 281.7 -81 L 281.7 -81 L 281.7 -81 Q 287.2 -86.9 296.3 -86.9 L 296.3 -86.9 L 296.3 -86.9 Q 299.5 -86.9 301.9 -85.8 L 301.9 -85.8 L 312.8 -86.9 L 308.1 -61.9 L 308.1 -61.9 Q 307.9 -61.1 307.9 -59.7 L 307.9 -59.7 L 307.9 -59.7 Q 307.9 -58.3 308.8 -57.4 L 308.8 -57.4 L 308.8 -57.4 Q 309.6 -56.5 310.9 -56.4 L 310.9 -56.4 L 310.9 -56.4 Q 310.3 -54.2 307.9 -53 L 307.9 -53 L 307.9 -53 Q 305.6 -51.7 303 -51.7 L 303 -51.7 L 303 -51.7 Q 300.4 -51.7 298.6 -52.7 L 298.6 -52.7 L 298.6 -52.7 Q 296.8 -53.7 296.3 -55.3 L 296.3 -55.3 L 296.3 -55.3 Q 295.3 -53.7 293.1 -52.7 L 293.1 -52.7 L 293.1 -52.7 Q 290.9 -51.7 288 -51.7 L 288 -51.7 L 288 -51.7 Q 285.1 -51.7 282.8 -52.4 L 282.8 -52.4 L 282.8 -52.4 Q 280.4 -53.2 278.9 -54.9 Z M 292.4 -80.9 L 292.4 -80.9 L 292.4 -80.9 Q 291.7 -79.7 291 -77.8 L 291 -77.8 L 291 -77.8 Q 290.4 -75.8 289.3 -70.6 L 289.3 -70.6 L 289.3 -70.6 Q 288.3 -65.4 288.3 -61.7 L 288.3 -61.7 L 288.3 -61.7 Q 288.3 -57.9 288.8 -56.9 L 288.8 -56.9 L 288.8 -56.9 Q 289.4 -55.8 290.4 -55.8 L 290.4 -55.8 L 290.4 -55.8 Q 292.5 -55.8 294 -57.7 L 294 -57.7 L 294 -57.7 Q 295.5 -59.7 296.1 -63.1 L 296.1 -63.1 L 299.5 -81.9 L 299.5 -81.9 Q 298.1 -83 296.5 -83 L 296.5 -83 L 296.5 -83 Q 295 -83 294.1 -82.5 L 294.1 -82.5 L 294.1 -82.5 Q 293.1 -82 292.4 -80.9 Z M 331.6 -56.5 L 331.6 -56.5 L 331.6 -56.5 Q 329.6 -51.7 323.3 -51.7 L 323.3 -51.7 L 323.3 -51.7 Q 320.1 -51.7 318 -53.9 L 318 -53.9 L 318 -53.9 Q 316.4 -55.8 316.4 -57.9 L 316.4 -57.9 L 316.4 -57.9 Q 316.4 -62.7 318.6 -73.2 L 318.6 -73.2 L 323.3 -97.8 L 336.3 -99 L 330.1 -66.7 L 330.1 -66.7 Q 329 -61.9 329 -60.3 L 329 -60.3 L 329 -60.3 Q 329 -56.6 331.6 -56.5 Z M 352.3 -56.5 L 352.3 -56.5 L 352.3 -56.5 Q 350.3 -51.7 344 -51.7 L 344 -51.7 L 344 -51.7 Q 340.8 -51.7 338.8 -53.9 L 338.8 -53.9 L 338.8 -53.9 Q 337.1 -55.8 337.1 -57.9 L 337.1 -57.9 L 337.1 -57.9 Q 337.1 -62.7 339.3 -73.2 L 339.3 -73.2 L 344 -97.8 L 357 -99 L 350.8 -66.7 L 350.8 -66.7 Q 349.7 -61.9 349.7 -60.3 L 349.7 -60.3 L 349.7 -60.3 Q 349.7 -56.6 352.3 -56.5 Z M 383.7 -63.8 L 383.7 -63.8 L 383.7 -63.8 Q 385.3 -62.7 385.3 -60.3 L 385.3 -60.3 L 385.3 -60.3 Q 385.3 -57.9 384.1 -56.3 L 384.1 -56.3 L 384.1 -56.3 Q 382.9 -54.8 380.9 -53.8 L 380.9 -53.8 L 380.9 -53.8 Q 376.8 -51.7 372.4 -51.7 L 372.4 -51.7 L 372.4 -51.7 Q 367.9 -51.7 365.3 -52.6 L 365.3 -52.6 L 365.3 -52.6 Q 362.8 -53.6 361 -55.4 L 361 -55.4 L 361 -55.4 Q 357.6 -58.8 357.6 -65 L 357.6 -65 L 357.6 -65 Q 357.6 -74.7 362.9 -80.5 L 362.9 -80.5 L 362.9 -80.5 Q 368.5 -86.9 378.3 -86.9 L 378.3 -86.9 L 378.3 -86.9 Q 384.4 -86.9 387.4 -84.3 L 387.4 -84.3 L 387.4 -84.3 Q 389.6 -82.4 389.6 -79.3 L 389.6 -79.3 L 389.6 -79.3 Q 389.6 -68 370.2 -68 L 370.2 -68 L 370.2 -68 Q 369.9 -66.3 369.9 -64.9 L 369.9 -64.9 L 369.9 -64.9 Q 369.9 -62 371.2 -60.9 L 371.2 -60.9 L 371.2 -60.9 Q 372.5 -59.7 375 -59.7 L 375 -59.7 L 375 -59.7 Q 377.4 -59.7 380 -60.9 L 380 -60.9 L 380 -60.9 Q 382.6 -62 383.7 -63.8 Z M 370.6 -70.7 L 370.6 -70.7 L 370.6 -70.7 Q 375.2 -70.7 377.8 -73.6 L 377.8 -73.6 L 377.8 -73.6 Q 380.4 -76.3 380.4 -80.5 L 380.4 -80.5 L 380.4 -80.5 Q 380.4 -82 379.9 -82.8 L 379.9 -82.8 L 379.9 -82.8 Q 379.3 -83.6 378.2 -83.6 L 378.2 -83.6 L 378.2 -83.6 Q 377.2 -83.6 376.2 -83.2 L 376.2 -83.2 L 376.2 -83.2 Q 375.3 -82.8 374.3 -81.4 L 374.3 -81.4 L 374.3 -81.4 Q 372 -78.2 370.6 -70.7 Z M 411.8 -70.9 L 411.8 -70.9 L 411.8 -70.9 Q 414.1 -75 414.1 -79.2 L 414.1 -79.2 L 414.1 -79.2 Q 414.1 -81.9 412.2 -81.9 L 412.2 -81.9 L 412.2 -81.9 Q 410.6 -81.9 409 -79.3 L 409 -79.3 L 409 -79.3 Q 407.4 -76.7 406.9 -73.3 L 406.9 -73.3 L 403.5 -53 L 390.3 -51.7 L 396.8 -85.6 L 407.4 -86.9 L 406.2 -80.4 L 406.2 -80.4 Q 409.3 -86.9 416.4 -86.9 L 416.4 -86.9 L 416.4 -86.9 Q 420.1 -86.9 422.1 -85 L 422.1 -85 L 422.1 -85 Q 424.1 -83 424.1 -79.1 L 424.1 -79.1 L 424.1 -79.1 Q 424.1 -75.2 421.5 -72.7 L 421.5 -72.7 L 421.5 -72.7 Q 418.9 -70.2 414.5 -70.2 L 414.5 -70.2 L 414.5 -70.2 Q 412.6 -70.2 411.8 -70.9 Z M 445.5 -60.2 L 445.5 -60.2 L 445.5 -60.2 Q 442.2 -56.7 436.1 -56.7 L 436.1 -56.7 L 436.1 -56.7 Q 428.5 -56.7 426.9 -62.3 L 426.9 -62.3 L 426.9 -62.3 Q 426.4 -64 426.4 -65.8 L 426.4 -65.8 L 426.4 -65.8 Q 426.4 -67.7 426.8 -69.6 L 426.8 -69.6 L 429.8 -85.6 L 442.8 -86.9 L 439.2 -68.3 L 439.2 -68.3 Q 439.1 -67.4 438.9 -66.5 L 438.9 -66.5 L 438.9 -66.5 Q 438.7 -65.6 438.7 -64.7 L 438.7 -64.7 L 438.7 -64.7 Q 438.7 -63.8 439 -63.2 L 439 -63.2 L 439 -63.2 Q 439.4 -62.6 439.8 -62.2 L 439.8 -62.2 L 439.8 -62.2 Q 440.6 -61.7 442 -61.7 L 442 -61.7 L 442 -61.7 Q 443.3 -61.7 444.5 -63.3 L 444.5 -63.3 L 444.5 -63.3 Q 445.7 -65 446.3 -67.9 L 446.3 -67.9 L 449.8 -85.6 L 462.4 -86.9 L 457.6 -61.7 L 457.6 -61.7 Q 455.2 -49.4 450.4 -44.6 L 450.4 -44.6 L 450.4 -44.6 Q 447.9 -42.1 444.6 -41.1 L 444.6 -41.1 L 444.6 -41.1 Q 441.4 -40.1 437.3 -40.1 L 437.3 -40.1 L 437.3 -40.1 Q 430.5 -40.1 426.7 -42.2 L 426.7 -42.2 L 426.7 -42.2 Q 422.9 -44.3 422.9 -47.8 L 422.9 -47.8 L 422.9 -47.8 Q 422.9 -50.5 424.8 -52 L 424.8 -52 L 424.8 -52 Q 426.8 -53.5 429.9 -53.5 L 429.9 -53.5 L 429.9 -53.5 Q 432.6 -53.5 434.6 -52.3 L 434.6 -52.3 L 434.6 -52.3 Q 435.8 -51.6 436.4 -50.7 L 436.4 -50.7 L 436.4 -50.7 Q 434.9 -49.4 434.9 -47.3 L 434.9 -47.3 L 434.9 -47.3 Q 434.9 -44.5 437.5 -44.5 L 437.5 -44.5 L 437.5 -44.5 Q 441.7 -44.5 444.2 -54.2 L 444.2 -54.2 L 444.2 -54.2 Q 444.9 -57.1 445.5 -60.2 Z" fill="url(#editing-gradient-gradient)"></path></g></g><style>text {
  font-size: 64px;
  font-family: Arial Black;
  dominant-baseline: central;
  text-anchor: middle;
}</style></svg>